<?xml version="1.0" encoding="utf-8"?>
<!-- Generator: Adobe Illustrator 16.0.0, SVG Export Plug-In . SVG Version: 6.00 Build 0)  -->
<!DOCTYPE svg PUBLIC "-//W3C//DTD SVG 1.1//EN" "http://www.w3.org/Graphics/SVG/1.1/DTD/svg11.dtd">
<svg version="1.1" id="图层_1" xmlns="http://www.w3.org/2000/svg" xmlns:xlink="http://www.w3.org/1999/xlink" x="0px" y="0px"
	 width="15px" height="154.5px" viewBox="0 0 15 154.5" enable-background="new 0 0 15 154.5" xml:space="preserve">
<rect x="1" y="114.1" fill="#B74B97" width="13" height="16"/>
<rect x="3" y="115.9" fill="#FFFFFF" width="9" height="11"/>
<rect x="6.5" y="127.9" fill="#FFFFFF" width="2" height="1"/>
<path fill="#7BA62C" d="M13,14c0,1.1-0.9,2-2,2H3c-1.1,0-2-0.9-2-2V2c0-1.1,0.9-2,2-2h8c1.1,0,2,0.9,2,2V14L13,14z"/>
<rect x="3" y="2.4" fill="#FFFFFF" width="8" height="11"/>
<rect x="3" y="14" fill="#FFFFFF" width="1.1" height="1.1"/>
<rect x="9.9" y="14" fill="#FFFFFF" width="1.1" height="1.1"/>
<rect x="5.8" y="14" fill="#FFFFFF" width="2.2" height="1.1"/>
<rect x="1" y="18.8" fill="#B74B97" width="12" height="16"/>
<rect x="3" y="20.8" fill="#FFFFFF" width="8" height="11"/>
<rect x="6" y="32.8" fill="#FFFFFF" width="2" height="1"/>
<path fill="#4669B2" d="M12.9,51.8c0,1.1-0.9,2-2,2H3c-1.1,0-2-0.9-2-2v-12c0-1.1,0.9-2,2-2h7.9c1.1,0,2,0.9,2,2V51.8L12.9,51.8z"/>
<path fill="#4669B2" d="M12.9,70.5c0,1.1-0.9,2-2,2H3c-1.1,0-2-0.9-2-2V58.6c0-1.1,0.9-2,2-2h7.9c1.1,0,2,0.9,2,2V70.5L12.9,70.5z"
	/>
<rect x="3" y="39.8" fill="#FFFFFF" width="7.9" height="10"/>
<rect x="6" y="50.8" fill="#FFFFFF" width="2" height="2"/>
<rect x="3" y="58.8" fill="#FFFFFF" width="8" height="8"/>
<rect x="3" y="68.4" fill="#FFFFFF" width="0.9" height="2.199"/>
<rect x="10" y="68.4" fill="#FFFFFF" width="0.9" height="2.199"/>
<rect x="5" y="67.7" fill="#FFFFFF" width="4" height="4"/>
<rect x="6" y="68.5" fill="#4669B2" width="2.3" height="2.3"/>
<g>
	<path fill="#4669B2" d="M15.1,90.2c0,1.1-0.896,2-2,2h-11c-1.1,0-2-0.9-2-2v-12c0-1.101,0.9-2,2-2h11c1.104,0,2,0.899,2,2V90.2z"/>
	<rect x="2.1" y="78.2" fill="#FFFFFF" width="11" height="11"/>
	<rect x="7.2" y="90.2" fill="#FFFFFF" width="1" height="1"/>
</g>
<g>
	<rect y="94.8" fill="#0281ED" width="15" height="16"/>
	<rect x="1.9" y="96.8" fill="#FFFFFF" width="11" height="12"/>
</g>
<g>
	<path fill="#B74B97" stroke="#B74B97" stroke-width="0.5" stroke-miterlimit="10" d="M4.3,124.4v-6H4.1c-0.2,0-0.3-0.2-0.4-0.4
		c0-0.2,0.1-0.3,0.4-0.4h0.8c0.2,0,0.3,0.104,0.3,0.2v6.5c0,0.3-0.2,0.4-0.5,0.4C4.4,124.8,4.3,124.7,4.3,124.4z"/>
	<path fill="#B74B97" stroke="#B74B97" stroke-width="0.5" stroke-miterlimit="10" d="M6.4,121.2c0.1-2.3,0.9-3.5,2.4-3.601
		c1.5,0.197,2.3,1.397,2.3,3.601c-0.1,2.2-0.896,3.399-2.3,3.6C7.3,124.7,6.5,123.5,6.4,121.2z M7.4,121.2c0,1.8,0.5,2.8,1.4,2.899
		c0.9-0.103,1.4-1,1.4-2.899c0-1.8-0.5-2.8-1.4-2.9C7.9,118.4,7.4,119.4,7.4,121.2z"/>
</g>
<image overflow="visible" width="590" height="613" xlink:href="AB573D67.png"  transform="matrix(1.0002 0 0 1.0002 -8188.9868 -8076.6045)">
</image>
<path fill="none" enable-background="new    " d="z"/>
<path fill="none" enable-background="new    " d="z"/>
<g>
	<path opacity="0.5" fill="#1578FF" d="M7.292,136.558c0,0,0.185-0.841,0.554-1.588c0.166-0.338,0.357-0.747,0.534-0.919
		c0,0,0.725,0.105,1.751-0.066c1.386-0.233,2.043,0.037,2.404,0.168c0.518,0.185,1.304,0.96,1.973,1.995
		c0.599,0.929,0.364,2.081,0.408,3.512c0.031,0.949-0.568,2.234-0.835,2.941c-0.011,0.029-0.165,0.251-0.175,0.282l-0.674,0.914
		c0,0-0.354,0.592-0.384,0.625c-0.175,0.185-0.786,1.222-0.863,0.939c-0.023-0.081-0.099,0.094-0.099,0.094
		S12.445,138.721,7.292,136.558z"/>
	<path opacity="0.5" fill="#1578FF" d="M6.892,139.903c0,0,0.001,0.005,0.002,0.014c0.119,0.847,0.206,0.912,0.844,1.769
		c0,0-0.359-0.608-0.356-1.145c0.001-0.154,0.155-0.402,0.178-0.401c0.005,0.001,0.011-0.017,0.004-0.018
		C7.303,140.07,6.892,139.903,6.892,139.903z"/>
	<path fill="#1578FF" d="M0.29,135.021c0,0-0.01-0.039,0.039-0.021c0.003,0.001,0.006,0.002,0.009,0.004
		c4.979,2.035,4.881,1.844,4.881,1.844s0.431,0.128,0.986-0.096c0.36-0.146,0.797-0.277,1.034-0.265
		c0.449,0.022,1.7,0.228,3.045,1.252c1.222,0.93,2.29,2.346,2.652,4.478c0.001,0.007,0.002,0.015,0.003,0.023
		c0.246,1.962-0.841,4.271-3.716,4.498c-0.009,0-0.017,0-0.024,0.002c-0.034,0.013-0.07,0.067-0.084,0.112
		c-0.19,0.689-1.157,1.717-1.948,2.07c-0.164,0.071-0.368,0.156-0.89,0.167c0,0,0.256-0.096,0.505-0.313
		c0.004-0.004,0.009-0.007,0.016-0.012c0.447-0.306,1.471-1.648,1.354-2.297c-0.064-0.367-0.417-0.93-0.673-1.155
		c-0.241-0.212-0.313-0.216-0.313-0.216s0.119-0.012,0.41,0.072c0.41,0.119,0.744,0.418,1.45,0.986
		c0.051,0.043,0.098,0.104,0.157,0.096c0.005,0,0.009-0.002,0.014,0c0.271,0.025,1.215-0.236,1.439-1.21
		c0.351-1.51-1.18-3.071-2.371-4.021c-1.072-0.854-1.871-1.214-0.782-0.592c-0.382-0.218-1.098-0.602-1.472-1.103
		c-0.342-0.459-0.431-0.766-0.603-0.975c-0.072-0.085-0.14-0.168-0.209-0.242c-0.669-0.71-1.471-0.848-1.471-0.848
		s0.046-0.029,0.071-0.028c0.148,0,0.794,0.117,1.227,0.337c0.312,0.159,0.534,0.479,0.534,0.479s-0.164-0.277-0.566-0.591
		c-1.141-0.887-4.654-2.411-4.654-2.411L0.29,135.021z"/>
	<linearGradient id="SVGID_1_" gradientUnits="userSpaceOnUse" x1="7.7383" y1="140.0781" x2="9.9482" y2="140.0781">
		<stop  offset="0" style="stop-color:#FFFFFF;stop-opacity:0"/>
		<stop  offset="1" style="stop-color:#6AA1FF"/>
	</linearGradient>
	<path fill="url(#SVGID_1_)" d="M7.738,139.063c0,0,1.949-0.118,2.21,2.033c0,0-0.19-1.19-2.21-1.017V139.063z"/>
	<path fill="#76AEFF" d="M9.747,146.66c-0.016,0.012,0.014,0.004-0.005,0.009c-0.172,0.031-0.35,0.055-0.537,0.069
		c-0.009,0-0.017,0-0.023,0.002c-0.036,0.013-0.072,0.067-0.085,0.112c-0.189,0.689-1.158,1.717-1.948,2.07
		c-0.164,0.071-0.367,0.156-0.89,0.167c0,0,0.257-0.096,0.505-0.313c0.005-0.004,0.011-0.007,0.017-0.012
		c0.447-0.306,1.471-1.648,1.355-2.297c-0.066-0.367-0.417-0.93-0.674-1.155c-0.24-0.212-0.313-0.216-0.313-0.216
		s0.121-0.012,0.409,0.072c0.41,0.119,0.745,0.418,1.451,0.986c0.052,0.043,0.098,0.104,0.158,0.096c0.003,0,0.007-0.002,0.012,0
		c0.271,0.025,1.216-0.236,1.44-1.21c0.029-0.127,0.051-0.381,0.051-0.381S10.825,145.792,9.747,146.66z"/>
</g>
</svg>
